<svg xmlns="http://www.w3.org/2000/svg" width="960" height="336.343" viewBox="0 0 960 336.343"><g transform="translate(-363.47 -386.429)"><path d="M658.953,664.883a20.812,20.812,0,0,1,0-41.624H968.09a18.1,18.1,0,0,0-15.878-9.439H337.729a30.251,30.251,0,0,0,0,60.5H952.212a18.1,18.1,0,0,0,15.878-9.439Z" transform="translate(353.27 48.449)" fill="#d6d6e3"/><path d="M976.771,635.124H682.853a1.7,1.7,0,1,1,0-3.4H976.771a1.7,1.7,0,1,1,0,3.4Z" transform="translate(345 48.053)" fill="#d6d6e3"/><path d="M976.771,646.417H682.853a1.7,1.7,0,1,1,0-3.4H976.771a1.7,1.7,0,1,1,0,3.4Z" transform="translate(345 47.803)" fill="#d6d6e3"/><path d="M976.771,657.71H682.853a1.7,1.7,0,1,1,0-3.4H976.771a1.7,1.7,0,1,1,0,3.4Z" transform="translate(345 47.553)" fill="#d6d6e3"/><path d="M577.294,604.943a20.812,20.812,0,1,1,0-41.624H886.432a18.1,18.1,0,0,0-15.877-9.439H256.071a30.251,30.251,0,0,0,0,60.5H870.555a18.1,18.1,0,0,0,15.877-9.439Z" transform="translate(355.078 49.776)" fill="#6c63ff"/><path d="M895.113,575.183H601.195a1.7,1.7,0,0,1,0-3.4H895.113a1.7,1.7,0,0,1,0,3.4Z" transform="translate(346.808 49.379)" fill="#ccc"/><path d="M895.113,586.476H601.195a1.7,1.7,0,1,1,0-3.4H895.113a1.7,1.7,0,0,1,0,3.4Z" transform="translate(346.808 49.129)" fill="#ccc"/><path d="M895.113,597.769H601.195a1.7,1.7,0,1,1,0-3.4H895.113a1.7,1.7,0,0,1,0,3.4Z" transform="translate(346.808 48.879)" fill="#ccc"/><path d="M495.637,543a20.812,20.812,0,1,1,0-41.624H804.774a18.1,18.1,0,0,0-15.877-9.439H174.413a30.251,30.251,0,0,0,0,60.5H788.9A18.1,18.1,0,0,0,804.774,543Z" transform="translate(356.885 51.147)" fill="#d6d6e3"/><path d="M813.455,513.243H519.537a1.7,1.7,0,1,1,0-3.4H813.455a1.7,1.7,0,1,1,0,3.4Z" transform="translate(348.615 50.75)" fill="#d6d6e3"/><path d="M813.455,524.536H519.537a1.7,1.7,0,0,1,0-3.4H813.455a1.7,1.7,0,0,1,0,3.4Z" transform="translate(348.615 50.5)" fill="#d6d6e3"/><path d="M813.455,535.829H519.537a1.7,1.7,0,0,1,0-3.4H813.455a1.7,1.7,0,0,1,0,3.4Z" transform="translate(348.615 50.25)" fill="#d6d6e3"/><path d="M658.953,664.883a20.812,20.812,0,0,1,0-41.624H968.09a18.1,18.1,0,0,0-15.878-9.439H337.729a30.251,30.251,0,0,0,0,60.5H952.212a18.1,18.1,0,0,0,15.878-9.439Z" transform="translate(55.955 -187.962)" fill="#d6d6e3"/><path d="M976.771,635.124H682.853a1.7,1.7,0,1,1,0-3.4H976.771a1.7,1.7,0,1,1,0,3.4Z" transform="translate(47.685 -188.358)" fill="#d6d6e3"/><path d="M976.771,646.417H682.853a1.7,1.7,0,1,1,0-3.4H976.771a1.7,1.7,0,1,1,0,3.4Z" transform="translate(47.685 -188.608)" fill="#d6d6e3"/><path d="M976.771,657.71H682.853a1.7,1.7,0,1,1,0-3.4H976.771a1.7,1.7,0,1,1,0,3.4Z" transform="translate(47.685 -188.858)" fill="#d6d6e3"/><path d="M577.294,604.943a20.812,20.812,0,1,1,0-41.624H886.432a18.1,18.1,0,0,0-15.877-9.439H256.071a30.251,30.251,0,0,0,0,60.5H870.555a18.1,18.1,0,0,0,15.877-9.439Z" transform="translate(206.419 -69.408)" fill="#6c63ff"/><path d="M895.113,575.183H601.195a1.7,1.7,0,0,1,0-3.4H895.113a1.7,1.7,0,0,1,0,3.4Z" transform="translate(198.149 -69.804)" fill="#ccc"/><path d="M895.113,586.476H601.195a1.7,1.7,0,1,1,0-3.4H895.113a1.7,1.7,0,0,1,0,3.4Z" transform="translate(198.149 -70.054)" fill="#ccc"/><path d="M895.113,597.769H601.195a1.7,1.7,0,1,1,0-3.4H895.113a1.7,1.7,0,0,1,0,3.4Z" transform="translate(198.149 -70.304)" fill="#ccc"/><g transform="translate(1163.769 386.429)"><path d="M50.845,7.893a7.934,7.934,0,0,1-.214,1.826L44.564,35.535a6.815,6.815,0,0,1-8.2,5.075L12.046,33.067,10.859,32.7a7.04,7.04,0,0,1-5.333,1.107C2,33.183-.447,30.311.069,27.388s3.794-4.781,7.323-4.16a7.054,7.054,0,0,1,4.636,2.861l.018,0,.062.011L33.27,28.721,35.049,7.257a7.912,7.912,0,0,1,15.8.635Z" transform="matrix(0.921, -0.391, 0.391, 0.921, 0, 63.534)" fill="#ed9da0"/><path d="M37.71,7.893A7.934,7.934,0,0,1,37.5,9.719L32.518,36.625a6.815,6.815,0,0,1-8.2,5.075L0,34.94,1.089,24.411h0L19.6,26.953l2.309-19.7a7.912,7.912,0,0,1,15.8.635Z" transform="matrix(0.921, -0.391, 0.391, 0.921, 12.091, 58.402)" fill="#6c63ff"/><rect width="7.296" height="7.296" transform="translate(77.588 190.42) rotate(-36.399)" fill="#ed9da0"/><path d="M561.149,552.942l-12.483,9.2a8.944,8.944,0,0,1-3.622,1.579l-3.117.59a1.717,1.717,0,0,1-1.67-2.747l3.779-4.814,4.975-10.257.029.026c.719.657,1.811,1.646,1.893,1.695a3.791,3.791,0,0,0,3.507-.568c1.379-1.25,1.1-3.7,1.1-3.727l0-.019.016-.01a1.228,1.228,0,0,1,1.076-.147,2.4,2.4,0,0,1,1.146,1.349c.7.1,2.524,2.189,2.671,2.358a3.054,3.054,0,0,1,2.146,1.17,2.386,2.386,0,0,1,.189,1.944A4.331,4.331,0,0,1,561.149,552.942Z" transform="translate(-470.424 -354.898)" fill="#2f2e43"/><rect width="7.296" height="7.296" transform="translate(25.804 203.226)" fill="#ed9da0"/><path d="M425.14,592.336H409.631a8.944,8.944,0,0,1-3.852-.878l-2.859-1.374a1.717,1.717,0,0,1,.286-3.2l5.9-1.632,10.091-5.3.008.038c.189.956.481,2.4.518,2.487a3.791,3.791,0,0,0,3.16,1.624c1.852-.188,3.083-2.326,3.1-2.348l.009-.016.019,0a1.228,1.228,0,0,1,.953.52,2.4,2.4,0,0,1,.122,1.766c.506.495.733,3.26.751,3.483a3.055,3.055,0,0,1,1.033,2.216,2.386,2.386,0,0,1-1,1.677A4.332,4.332,0,0,1,425.14,592.336Z" transform="translate(-393.286 -375.177)" fill="#2f2e43"/><path d="M473.493,317.714H438.525l-5.574,116h12.314l7.956-52.729,31.926,42.183L496.8,412.626l-23.312-31.637Z" transform="translate(-410.623 -228.54)" fill="#2f2e43"/><path d="M473.991,138.521a12.887,12.887,0,1,0-16.748,12.3l2.491,16.464,12.7-10.584a31.99,31.99,0,0,1-4.215-7.435A12.873,12.873,0,0,0,473.991,138.521Z" transform="translate(-419.16 -121.129)" fill="#ed9da0"/><path d="M473.758,281.639l5.711,16.829-32.311-.363,4.818-15.377Z" transform="translate(-418.567 -208.367)" fill="#ed9da0"/><path d="M465.522,184.739l-14.329,4.981-13.546,69.933,27.875,3.4h13.626l-10.41-69.543a23.209,23.209,0,0,0-3.216-8.774h0Z" transform="translate(-413.249 -154.181)" fill="#6c63ff"/><path d="M480.56,356.38l.249-11.495-6.712-.146-.249,11.495a7.046,7.046,0,0,0-2.123,5.016c-.078,3.583,2.263,6.54,5.228,6.6s5.432-2.788,5.51-6.371a7.047,7.047,0,0,0-1.9-5.1Z" transform="translate(-432.305 -243.652)" fill="#ed9da0"/><path d="M515.695,138.205s-.5,3.319,1.138,1.358,5.406-9.2,5.406-9.2c3.212-9.836-8.006-15.486-8.006-15.486-3.661-4.311-11.017.731-11.017.731-10.611-2.357-5.487,6.586-5.487,6.586s3.618.08,3.618,3.006,3.943,2.725,3.943,2.725l3.089,5.406,1.706-2.073c6.343-2.686,5.611,6.95,5.611,6.95Z" transform="translate(-464.908 -113.133)" fill="#090814"/></g></g></svg>