<svg width="145" height="22" viewBox="0 0 145 22" fill="none" xmlns="http://www.w3.org/2000/svg">
<path d="M0 11C0 4.92487 4.92487 0 11 0H134C140.075 0 145 4.92487 145 11V11C145 17.0751 140.075 22 134 22H11C4.92487 22 0 17.0751 0 11V11Z" fill="#9371B6"/>
<path d="M0 11C0 4.92487 4.92487 0 11 0H134C140.075 0 145 4.92487 145 11V11C145 17.0751 140.075 22 134 22H11C4.92487 22 0 17.0751 0 11V11Z" fill="black" fill-opacity="0.01"/>
<path d="M44.0251 14L46.4281 7.295H47.4721L49.8751 14H48.9301L48.3811 12.425H45.5191L44.9701 14H44.0251ZM45.7981 11.615H48.1021L46.8241 7.934H47.0761L45.7981 11.615ZM54.6336 14.108C54.2436 14.108 53.8866 14.021 53.5626 13.847C53.2446 13.673 52.9986 13.427 52.8246 13.109L52.9416 12.965V14H52.1226V7.187H52.9596V10.193L52.8336 9.986C53.0136 9.698 53.2596 9.47 53.5716 9.302C53.8836 9.128 54.2406 9.041 54.6426 9.041C55.0986 9.041 55.5066 9.152 55.8666 9.374C56.2326 9.596 56.5206 9.899 56.7306 10.283C56.9406 10.661 57.0456 11.093 57.0456 11.579C57.0456 12.053 56.9406 12.482 56.7306 12.866C56.5206 13.25 56.2326 13.553 55.8666 13.775C55.5066 13.997 55.0956 14.108 54.6336 14.108ZM54.5706 13.298C54.8766 13.298 55.1496 13.223 55.3896 13.073C55.6296 12.923 55.8156 12.719 55.9476 12.461C56.0856 12.197 56.1546 11.903 56.1546 11.579C56.1546 11.243 56.0856 10.949 55.9476 10.697C55.8156 10.439 55.6296 10.235 55.3896 10.085C55.1496 9.929 54.8766 9.851 54.5706 9.851C54.2646 9.851 53.9886 9.926 53.7426 10.076C53.5026 10.226 53.3106 10.433 53.1666 10.697C53.0286 10.955 52.9596 11.249 52.9596 11.579C52.9596 11.903 53.0286 12.197 53.1666 12.461C53.3106 12.719 53.5026 12.923 53.7426 13.073C53.9886 13.223 54.2646 13.298 54.5706 13.298ZM58.1162 14V9.149H58.9532V14H58.1162ZM58.1162 8.375V7.295H58.9532V8.375H58.1162ZM62.1959 14.054C61.7219 14.054 61.3559 13.919 61.0979 13.649C60.8459 13.379 60.7199 12.998 60.7199 12.506V9.95H59.8379V9.149H60.0179C60.2339 9.149 60.4049 9.083 60.5309 8.951C60.6569 8.819 60.7199 8.645 60.7199 8.429V8.033H61.5569V9.149H62.6459V9.95H61.5569V12.479C61.5569 12.641 61.5809 12.782 61.6289 12.902C61.6829 13.022 61.7699 13.118 61.8899 13.19C62.0099 13.256 62.1689 13.289 62.3669 13.289C62.4089 13.289 62.4599 13.286 62.5199 13.28C62.5859 13.274 62.6459 13.268 62.6999 13.262V14C62.6219 14.018 62.5349 14.03 62.4389 14.036C62.3429 14.048 62.2619 14.054 62.1959 14.054ZM67.5989 14.108C67.1309 14.108 66.7079 14 66.3299 13.784C65.9519 13.562 65.6519 13.259 65.4299 12.875C65.2079 12.491 65.0969 12.056 65.0969 11.57C65.0969 11.084 65.2049 10.652 65.4209 10.274C65.6429 9.896 65.9429 9.596 66.3209 9.374C66.6989 9.152 67.1249 9.041 67.5989 9.041C68.0669 9.041 68.4899 9.152 68.8679 9.374C69.2459 9.59 69.5429 9.887 69.7589 10.265C69.9809 10.643 70.0919 11.078 70.0919 11.57C70.0919 12.062 69.9779 12.5 69.7499 12.884C69.5219 13.262 69.2189 13.562 68.8409 13.784C68.4689 14 68.0549 14.108 67.5989 14.108ZM67.5989 13.298C67.8989 13.298 68.1689 13.223 68.4089 13.073C68.6549 12.923 68.8469 12.716 68.9849 12.452C69.1289 12.188 69.2009 11.894 69.2009 11.57C69.2009 11.24 69.1289 10.949 68.9849 10.697C68.8469 10.439 68.6549 10.235 68.4089 10.085C68.1689 9.929 67.8989 9.851 67.5989 9.851C67.2929 9.851 67.0169 9.929 66.7709 10.085C66.5309 10.235 66.3389 10.439 66.1949 10.697C66.0509 10.949 65.9789 11.24 65.9789 11.57C65.9789 11.894 66.0509 12.188 66.1949 12.452C66.3389 12.716 66.5309 12.923 66.7709 13.073C67.0169 13.223 67.2929 13.298 67.5989 13.298ZM71.5202 14V9.95H70.5932V9.149H71.5202V8.807C71.5202 8.459 71.5952 8.165 71.7452 7.925C71.9012 7.685 72.1052 7.502 72.3572 7.376C72.6152 7.25 72.9002 7.187 73.2122 7.187C73.2782 7.187 73.3502 7.193 73.4282 7.205C73.5122 7.211 73.5812 7.22 73.6352 7.232V7.979C73.5872 7.967 73.5302 7.961 73.4642 7.961C73.3982 7.955 73.3472 7.952 73.3112 7.952C73.0352 7.952 72.8072 8.018 72.6272 8.15C72.4532 8.282 72.3662 8.501 72.3662 8.807V9.149H73.5182V9.95H72.3662V14H71.5202ZM78.318 14.108C77.85 14.108 77.433 13.997 77.067 13.775C76.701 13.553 76.413 13.25 76.203 12.866C75.993 12.476 75.888 12.041 75.888 11.561C75.888 11.075 75.99 10.643 76.194 10.265C76.404 9.887 76.686 9.59 77.04 9.374C77.4 9.152 77.802 9.041 78.246 9.041C78.606 9.041 78.924 9.107 79.2 9.239C79.482 9.365 79.719 9.539 79.911 9.761C80.109 9.977 80.259 10.226 80.361 10.508C80.469 10.784 80.523 11.072 80.523 11.372C80.523 11.438 80.517 11.513 80.505 11.597C80.499 11.675 80.49 11.75 80.478 11.822H76.5V11.102H79.992L79.596 11.426C79.65 11.114 79.62 10.835 79.506 10.589C79.392 10.343 79.224 10.148 79.002 10.004C78.78 9.86 78.528 9.788 78.246 9.788C77.964 9.788 77.706 9.86 77.472 10.004C77.238 10.148 77.055 10.355 76.923 10.625C76.797 10.889 76.746 11.204 76.77 11.57C76.746 11.924 76.8 12.236 76.932 12.506C77.07 12.77 77.262 12.977 77.508 13.127C77.76 13.271 78.033 13.343 78.327 13.343C78.651 13.343 78.924 13.268 79.146 13.118C79.368 12.968 79.548 12.776 79.686 12.542L80.388 12.902C80.292 13.124 80.142 13.328 79.938 13.514C79.74 13.694 79.503 13.838 79.227 13.946C78.957 14.054 78.654 14.108 78.318 14.108ZM82.8494 14L80.9504 9.149H81.8864L83.4074 13.253H83.0834L84.6134 9.149H85.5494L83.6414 14H82.8494ZM88.4154 14.108C87.9474 14.108 87.5304 13.997 87.1644 13.775C86.7984 13.553 86.5104 13.25 86.3004 12.866C86.0904 12.476 85.9854 12.041 85.9854 11.561C85.9854 11.075 86.0874 10.643 86.2914 10.265C86.5014 9.887 86.7834 9.59 87.1374 9.374C87.4974 9.152 87.8994 9.041 88.3434 9.041C88.7034 9.041 89.0214 9.107 89.2974 9.239C89.5794 9.365 89.8164 9.539 90.0084 9.761C90.2064 9.977 90.3564 10.226 90.4584 10.508C90.5664 10.784 90.6204 11.072 90.6204 11.372C90.6204 11.438 90.6144 11.513 90.6024 11.597C90.5964 11.675 90.5874 11.75 90.5754 11.822H86.5974V11.102H90.0894L89.6934 11.426C89.7474 11.114 89.7174 10.835 89.6034 10.589C89.4894 10.343 89.3214 10.148 89.0994 10.004C88.8774 9.86 88.6254 9.788 88.3434 9.788C88.0614 9.788 87.8034 9.86 87.5694 10.004C87.3354 10.148 87.1524 10.355 87.0204 10.625C86.8944 10.889 86.8434 11.204 86.8674 11.57C86.8434 11.924 86.8974 12.236 87.0294 12.506C87.1674 12.77 87.3594 12.977 87.6054 13.127C87.8574 13.271 88.1304 13.343 88.4244 13.343C88.7484 13.343 89.0214 13.268 89.2434 13.118C89.4654 12.968 89.6454 12.776 89.7834 12.542L90.4854 12.902C90.3894 13.124 90.2394 13.328 90.0354 13.514C89.8374 13.694 89.6004 13.838 89.3244 13.946C89.0544 14.054 88.7514 14.108 88.4154 14.108ZM91.6847 14V9.149H92.5037V10.04L92.4137 9.914C92.5277 9.638 92.7017 9.434 92.9357 9.302C93.1697 9.164 93.4547 9.095 93.7907 9.095H94.0877V9.887H93.6647C93.3227 9.887 93.0467 9.995 92.8367 10.211C92.6267 10.421 92.5217 10.721 92.5217 11.111V14H91.6847ZM95.0652 15.98C94.9572 15.98 94.8492 15.971 94.7412 15.953C94.6332 15.935 94.5312 15.905 94.4352 15.863V15.116C94.5012 15.128 94.5822 15.14 94.6782 15.152C94.7802 15.17 94.8792 15.179 94.9752 15.179C95.2572 15.179 95.4702 15.116 95.6142 14.99C95.7642 14.87 95.9052 14.66 96.0372 14.36L96.3432 13.631L96.3252 14.36L94.2552 9.149H95.1642L96.7752 13.289H96.5052L98.1072 9.149H99.0342L96.8472 14.576C96.7452 14.834 96.6132 15.068 96.4512 15.278C96.2952 15.494 96.1032 15.665 95.8752 15.791C95.6472 15.917 95.3772 15.98 95.0652 15.98ZM101.723 14.054C101.249 14.054 100.883 13.919 100.625 13.649C100.373 13.379 100.247 12.998 100.247 12.506V9.95H99.3648V9.149H99.5448C99.7608 9.149 99.9318 9.083 100.058 8.951C100.184 8.819 100.247 8.645 100.247 8.429V8.033H101.084V9.149H102.173V9.95H101.084V12.479C101.084 12.641 101.108 12.782 101.156 12.902C101.21 13.022 101.297 13.118 101.417 13.19C101.537 13.256 101.696 13.289 101.894 13.289C101.936 13.289 101.987 13.286 102.047 13.28C102.113 13.274 102.173 13.268 102.227 13.262V14C102.149 14.018 102.062 14.03 101.966 14.036C101.87 14.048 101.789 14.054 101.723 14.054ZM103.293 14V7.187H104.13V10.094L103.977 10.013C104.097 9.707 104.289 9.47 104.553 9.302C104.823 9.128 105.138 9.041 105.498 9.041C105.846 9.041 106.155 9.119 106.425 9.275C106.701 9.431 106.917 9.647 107.073 9.923C107.235 10.199 107.316 10.511 107.316 10.859V14H106.47V11.129C106.47 10.859 106.419 10.631 106.317 10.445C106.221 10.259 106.086 10.115 105.912 10.013C105.738 9.905 105.537 9.851 105.309 9.851C105.087 9.851 104.886 9.905 104.706 10.013C104.526 10.115 104.385 10.262 104.283 10.454C104.181 10.64 104.13 10.865 104.13 11.129V14H103.293ZM108.487 14V9.149H109.324V14H108.487ZM108.487 8.375V7.295H109.324V8.375H108.487ZM110.596 14V9.149H111.415V10.094L111.28 10.013C111.4 9.707 111.592 9.47 111.856 9.302C112.126 9.128 112.441 9.041 112.801 9.041C113.149 9.041 113.458 9.119 113.728 9.275C114.004 9.431 114.22 9.647 114.376 9.923C114.538 10.199 114.619 10.511 114.619 10.859V14H113.773V11.129C113.773 10.859 113.725 10.631 113.629 10.445C113.533 10.259 113.395 10.115 113.215 10.013C113.041 9.905 112.84 9.851 112.612 9.851C112.384 9.851 112.18 9.905 112 10.013C111.826 10.115 111.688 10.262 111.586 10.454C111.484 10.64 111.433 10.865 111.433 11.129V14H110.596ZM118.102 15.98C117.76 15.98 117.442 15.926 117.148 15.818C116.86 15.71 116.611 15.56 116.401 15.368C116.197 15.182 116.041 14.963 115.933 14.711L116.716 14.351C116.8 14.579 116.959 14.771 117.193 14.927C117.433 15.089 117.733 15.17 118.093 15.17C118.369 15.17 118.618 15.116 118.84 15.008C119.068 14.906 119.248 14.75 119.38 14.54C119.512 14.336 119.578 14.087 119.578 13.793V12.704L119.731 12.866C119.563 13.196 119.32 13.448 119.002 13.622C118.69 13.796 118.345 13.883 117.967 13.883C117.511 13.883 117.103 13.778 116.743 13.568C116.383 13.352 116.101 13.061 115.897 12.695C115.693 12.323 115.591 11.912 115.591 11.462C115.591 11.006 115.693 10.595 115.897 10.229C116.101 9.863 116.38 9.575 116.734 9.365C117.094 9.149 117.502 9.041 117.958 9.041C118.336 9.041 118.678 9.128 118.984 9.302C119.296 9.47 119.545 9.704 119.731 10.004L119.605 10.229V9.149H120.424V13.793C120.424 14.213 120.325 14.588 120.127 14.918C119.929 15.248 119.653 15.506 119.299 15.692C118.951 15.884 118.552 15.98 118.102 15.98ZM118.039 13.073C118.327 13.073 118.585 13.001 118.813 12.857C119.047 12.713 119.233 12.521 119.371 12.281C119.509 12.035 119.578 11.762 119.578 11.462C119.578 11.168 119.509 10.898 119.371 10.652C119.233 10.406 119.047 10.211 118.813 10.067C118.585 9.923 118.327 9.851 118.039 9.851C117.745 9.851 117.478 9.923 117.238 10.067C116.998 10.211 116.809 10.406 116.671 10.652C116.539 10.892 116.473 11.162 116.473 11.462C116.473 11.762 116.539 12.035 116.671 12.281C116.809 12.521 116.995 12.713 117.229 12.857C117.469 13.001 117.739 13.073 118.039 13.073Z" fill="#F9F7F3"/>
<g clip-path="url(#clip0_545_9011)">
<path d="M11.0223 9.8885C10.4465 10.2144 9.99463 10.7215 9.73693 11.3308C9.47923 11.9402 9.43019 12.6176 9.59745 13.2578C9.76471 13.8979 10.1389 14.4648 10.6617 14.8702C11.1846 15.2756 11.8268 15.4968 12.4884 15.4993C13.15 15.5019 13.7939 15.2857 14.3199 14.8843C14.8459 14.4829 15.2244 13.919 15.3966 13.2802C15.5688 12.6414 15.525 11.9636 15.272 11.3522C15.019 10.7409 14.5711 10.2303 13.9978 9.9" stroke="#F9F7F3" stroke-linecap="round" stroke-linejoin="round"/>
<path d="M13.9984 15.098C14.5559 15.4201 15.2022 15.5543 15.8418 15.4808C16.4814 15.4073 17.0804 15.13 17.5503 14.6898C18.0201 14.2497 18.3359 13.67 18.451 13.0366C18.5661 12.4031 18.4743 11.7494 18.1892 11.1721C17.9041 10.5949 17.4409 10.1246 16.868 9.83086C16.2951 9.53712 15.6429 9.43548 15.0078 9.54097C14.3726 9.64646 13.7883 9.95347 13.3411 10.4166C12.8939 10.8798 12.6076 11.4746 12.5244 12.113" stroke="#F9F7F3" stroke-linecap="round" stroke-linejoin="round"/>
<path d="M16.975 9.8925C16.9917 9.76384 17 9.633 17 9.5C16.9998 8.84102 16.7826 8.20044 16.382 7.67721C15.9814 7.15398 15.4197 6.77721 14.7835 6.60509C14.1474 6.43298 13.4724 6.4751 12.8626 6.72495C12.2528 6.9748 11.7422 7.41847 11.4098 7.98744C11.0773 8.55641 10.9414 9.21902 11.0232 9.87292C11.1049 10.5268 11.3996 11.1356 11.8618 11.6053C12.3241 12.075 12.9281 12.3794 13.5806 12.4715C14.2331 12.5636 14.8978 12.4383 15.472 12.115" stroke="#F9F7F3" stroke-linecap="round" stroke-linejoin="round"/>
</g>
<defs>
<clipPath id="clip0_545_9011">
<rect width="12" height="12" fill="white" transform="translate(8 5)"/>
</clipPath>
</defs>
</svg>
