<svg width="54" height="22" viewBox="0 0 54 22" fill="none" xmlns="http://www.w3.org/2000/svg">
<path d="M0 11C0 4.92487 4.92487 0 11 0H43C49.0751 0 54 4.92487 54 11V11C54 17.0751 49.0751 22 43 22H11C4.92487 22 0 17.0751 0 11V11Z" fill="#9371B6"/>
<g clip-path="url(#clip0_545_9032)">
<path d="M0 11C0 4.92487 4.92487 0 11 0H43C49.0751 0 54 4.92487 54 11V11C54 17.0751 49.0751 22 43 22H11C4.92487 22 0 17.0751 0 11V11Z" fill="black" fill-opacity="0.01"/>
<path d="M17.4241 14.108C16.9501 14.108 16.5121 14.024 16.1101 13.856C15.7141 13.682 15.3661 13.439 15.0661 13.127C14.7721 12.815 14.5441 12.449 14.3821 12.029C14.2201 11.609 14.1391 11.15 14.1391 10.652C14.1391 10.148 14.2201 9.686 14.3821 9.266C14.5441 8.846 14.7721 8.48 15.0661 8.168C15.3601 7.856 15.7081 7.616 16.1101 7.448C16.5121 7.274 16.9501 7.187 17.4241 7.187C17.8861 7.187 18.3001 7.268 18.6661 7.43C19.0381 7.592 19.3501 7.802 19.6021 8.06C19.8601 8.318 20.0431 8.594 20.1511 8.888L19.3411 9.257C19.1851 8.885 18.9421 8.585 18.6121 8.357C18.2821 8.123 17.8861 8.006 17.4241 8.006C16.9561 8.006 16.5391 8.117 16.1731 8.339C15.8131 8.561 15.5311 8.87 15.3271 9.266C15.1231 9.662 15.0211 10.124 15.0211 10.652C15.0211 11.174 15.1231 11.633 15.3271 12.029C15.5311 12.425 15.8131 12.734 16.1731 12.956C16.5391 13.178 16.9561 13.289 17.4241 13.289C17.8861 13.289 18.2821 13.175 18.6121 12.947C18.9421 12.713 19.1851 12.41 19.3411 12.038L20.1511 12.407C20.0431 12.701 19.8601 12.977 19.6021 13.235C19.3501 13.493 19.0381 13.703 18.6661 13.865C18.3001 14.027 17.8861 14.108 17.4241 14.108ZM21.2248 14V7.187H22.0618V10.094L21.9088 10.013C22.0288 9.707 22.2208 9.47 22.4848 9.302C22.7548 9.128 23.0698 9.041 23.4298 9.041C23.7778 9.041 24.0868 9.119 24.3568 9.275C24.6328 9.431 24.8488 9.647 25.0048 9.923C25.1668 10.199 25.2478 10.511 25.2478 10.859V14H24.4018V11.129C24.4018 10.859 24.3508 10.631 24.2488 10.445C24.1528 10.259 24.0178 10.115 23.8438 10.013C23.6698 9.905 23.4688 9.851 23.2408 9.851C23.0188 9.851 22.8178 9.905 22.6378 10.013C22.4578 10.115 22.3168 10.262 22.2148 10.454C22.1128 10.64 22.0618 10.865 22.0618 11.129V14H21.2248ZM28.6505 14.108C28.1825 14.108 27.7655 13.997 27.3995 13.775C27.0335 13.553 26.7455 13.25 26.5355 12.866C26.3255 12.476 26.2205 12.041 26.2205 11.561C26.2205 11.075 26.3225 10.643 26.5265 10.265C26.7365 9.887 27.0185 9.59 27.3725 9.374C27.7325 9.152 28.1345 9.041 28.5785 9.041C28.9385 9.041 29.2565 9.107 29.5325 9.239C29.8145 9.365 30.0515 9.539 30.2435 9.761C30.4415 9.977 30.5915 10.226 30.6935 10.508C30.8015 10.784 30.8555 11.072 30.8555 11.372C30.8555 11.438 30.8495 11.513 30.8375 11.597C30.8315 11.675 30.8225 11.75 30.8105 11.822H26.8325V11.102H30.3245L29.9285 11.426C29.9825 11.114 29.9525 10.835 29.8385 10.589C29.7245 10.343 29.5565 10.148 29.3345 10.004C29.1125 9.86 28.8605 9.788 28.5785 9.788C28.2965 9.788 28.0385 9.86 27.8045 10.004C27.5705 10.148 27.3875 10.355 27.2555 10.625C27.1295 10.889 27.0785 11.204 27.1025 11.57C27.0785 11.924 27.1325 12.236 27.2645 12.506C27.4025 12.77 27.5945 12.977 27.8405 13.127C28.0925 13.271 28.3655 13.343 28.6595 13.343C28.9835 13.343 29.2565 13.268 29.4785 13.118C29.7005 12.968 29.8805 12.776 30.0185 12.542L30.7205 12.902C30.6245 13.124 30.4745 13.328 30.2705 13.514C30.0725 13.694 29.8355 13.838 29.5595 13.946C29.2895 14.054 28.9865 14.108 28.6505 14.108ZM33.6568 14.108C33.1708 14.108 32.7478 13.988 32.3878 13.748C32.0278 13.508 31.7728 13.184 31.6228 12.776L32.2888 12.452C32.4268 12.74 32.6158 12.968 32.8558 13.136C33.0958 13.304 33.3628 13.388 33.6568 13.388C33.9208 13.388 34.1398 13.325 34.3138 13.199C34.4878 13.073 34.5748 12.908 34.5748 12.704C34.5748 12.56 34.5328 12.446 34.4488 12.362C34.3708 12.272 34.2748 12.203 34.1608 12.155C34.0468 12.101 33.9418 12.062 33.8458 12.038L33.1168 11.831C32.6788 11.705 32.3578 11.525 32.1538 11.291C31.9558 11.057 31.8568 10.784 31.8568 10.472C31.8568 10.184 31.9288 9.935 32.0728 9.725C32.2228 9.509 32.4238 9.341 32.6758 9.221C32.9338 9.101 33.2218 9.041 33.5398 9.041C33.9658 9.041 34.3468 9.149 34.6828 9.365C35.0248 9.581 35.2678 9.884 35.4118 10.274L34.7278 10.589C34.6198 10.337 34.4578 10.139 34.2418 9.995C34.0258 9.845 33.7828 9.77 33.5128 9.77C33.2668 9.77 33.0718 9.833 32.9278 9.959C32.7838 10.079 32.7118 10.232 32.7118 10.418C32.7118 10.556 32.7478 10.67 32.8198 10.76C32.8918 10.844 32.9788 10.91 33.0808 10.958C33.1828 11 33.2818 11.036 33.3778 11.066L34.1698 11.3C34.5658 11.414 34.8718 11.591 35.0878 11.831C35.3098 12.071 35.4208 12.359 35.4208 12.695C35.4208 12.965 35.3458 13.208 35.1958 13.424C35.0458 13.64 34.8388 13.808 34.5748 13.928C34.3108 14.048 34.0048 14.108 33.6568 14.108ZM38.4605 14.054C37.9865 14.054 37.6205 13.919 37.3625 13.649C37.1105 13.379 36.9845 12.998 36.9845 12.506V9.95H36.1025V9.149H36.2825C36.4985 9.149 36.6695 9.083 36.7955 8.951C36.9215 8.819 36.9845 8.645 36.9845 8.429V8.033H37.8215V9.149H38.9105V9.95H37.8215V12.479C37.8215 12.641 37.8455 12.782 37.8935 12.902C37.9475 13.022 38.0345 13.118 38.1545 13.19C38.2745 13.256 38.4335 13.289 38.6315 13.289C38.6735 13.289 38.7245 13.286 38.7845 13.28C38.8505 13.274 38.9105 13.268 38.9645 13.262V14C38.8865 14.018 38.7995 14.03 38.7035 14.036C38.6075 14.048 38.5265 14.054 38.4605 14.054Z" fill="#F9F7F3"/>
</g>
<defs>
<clipPath id="clip0_545_9032">
<path d="M0 11C0 4.92487 4.92487 0 11 0H43C49.0751 0 54 4.92487 54 11V11C54 17.0751 49.0751 22 43 22H11C4.92487 22 0 17.0751 0 11V11Z" fill="white"/>
</clipPath>
</defs>
</svg>
