<svg width="157" height="20" viewBox="0 0 157 20" fill="none" xmlns="http://www.w3.org/2000/svg">
<path d="M31.1457 15.168C30.4084 15.168 29.727 15.0373 29.1017 14.776C28.4857 14.5053 27.9444 14.1273 27.4777 13.642C27.0204 13.1567 26.6657 12.5873 26.4137 11.934C26.1617 11.2807 26.0357 10.5667 26.0357 9.792C26.0357 9.008 26.1617 8.28933 26.4137 7.636C26.6657 6.98267 27.0204 6.41333 27.4777 5.928C27.935 5.44267 28.4764 5.06933 29.1017 4.808C29.727 4.53733 30.4084 4.402 31.1457 4.402C31.8644 4.402 32.5084 4.528 33.0777 4.78C33.6564 5.032 34.1417 5.35867 34.5337 5.76C34.935 6.16133 35.2197 6.59067 35.3877 7.048L34.1277 7.622C33.885 7.04333 33.507 6.57667 32.9937 6.222C32.4804 5.858 31.8644 5.676 31.1457 5.676C30.4177 5.676 29.769 5.84867 29.1997 6.194C28.6397 6.53933 28.201 7.02 27.8837 7.636C27.5664 8.252 27.4077 8.97067 27.4077 9.792C27.4077 10.604 27.5664 11.318 27.8837 11.934C28.201 12.55 28.6397 13.0307 29.1997 13.376C29.769 13.7213 30.4177 13.894 31.1457 13.894C31.8644 13.894 32.4804 13.7167 32.9937 13.362C33.507 12.998 33.885 12.5267 34.1277 11.948L35.3877 12.522C35.2197 12.9793 34.935 13.4087 34.5337 13.81C34.1417 14.2113 33.6564 14.538 33.0777 14.79C32.5084 15.042 31.8644 15.168 31.1457 15.168ZM40.5191 15.168C39.7911 15.168 39.1331 15 38.5451 14.664C37.9571 14.3187 37.4905 13.8473 37.1451 13.25C36.7998 12.6527 36.6271 11.976 36.6271 11.22C36.6271 10.464 36.7951 9.792 37.1311 9.204C37.4765 8.616 37.9431 8.14933 38.5311 7.804C39.1191 7.45867 39.7818 7.286 40.5191 7.286C41.2471 7.286 41.9051 7.45867 42.4931 7.804C43.0811 8.14 43.5431 8.602 43.8791 9.19C44.2245 9.778 44.3971 10.4547 44.3971 11.22C44.3971 11.9853 44.2198 12.6667 43.8651 13.264C43.5105 13.852 43.0391 14.3187 42.4511 14.664C41.8725 15 41.2285 15.168 40.5191 15.168ZM40.5191 13.908C40.9858 13.908 41.4058 13.7913 41.7791 13.558C42.1618 13.3247 42.4605 13.0027 42.6751 12.592C42.8991 12.1813 43.0111 11.724 43.0111 11.22C43.0111 10.7067 42.8991 10.254 42.6751 9.862C42.4605 9.46067 42.1618 9.14333 41.7791 8.91C41.4058 8.66733 40.9858 8.546 40.5191 8.546C40.0431 8.546 39.6138 8.66733 39.2311 8.91C38.8578 9.14333 38.5591 9.46067 38.3351 9.862C38.1111 10.254 37.9991 10.7067 37.9991 11.22C37.9991 11.724 38.1111 12.1813 38.3351 12.592C38.5591 13.0027 38.8578 13.3247 39.2311 13.558C39.6138 13.7913 40.0431 13.908 40.5191 13.908ZM46.0673 15V7.454H47.3413V8.924L47.1313 8.798C47.3179 8.322 47.6166 7.95333 48.0273 7.692C48.4473 7.42133 48.9373 7.286 49.4973 7.286C50.0386 7.286 50.5193 7.40733 50.9393 7.65C51.3686 7.89267 51.7046 8.22867 51.9473 8.658C52.1993 9.08733 52.3253 9.57267 52.3253 10.114V15H51.0093V10.534C51.0093 10.114 50.9346 9.75933 50.7853 9.47C50.6359 9.18067 50.4213 8.95667 50.1413 8.798C49.8706 8.63 49.5579 8.546 49.2033 8.546C48.8486 8.546 48.5313 8.63 48.2513 8.798C47.9806 8.95667 47.7659 9.18533 47.6073 9.484C47.4486 9.77333 47.3693 10.1233 47.3693 10.534V15H46.0673ZM57.2264 15.084C56.489 15.084 55.9197 14.874 55.5184 14.454C55.1264 14.034 54.9304 13.4413 54.9304 12.676V8.7H53.5584V7.454H53.8384C54.1744 7.454 54.4404 7.35133 54.6364 7.146C54.8324 6.94067 54.9304 6.67 54.9304 6.334V5.718H56.2324V7.454H57.9264V8.7H56.2324V12.634C56.2324 12.886 56.2697 13.1053 56.3444 13.292C56.4284 13.4787 56.5637 13.628 56.7504 13.74C56.937 13.8427 57.1844 13.894 57.4924 13.894C57.5577 13.894 57.637 13.8893 57.7304 13.88C57.833 13.8707 57.9264 13.8613 58.0104 13.852V15C57.889 15.028 57.7537 15.0467 57.6044 15.056C57.455 15.0747 57.329 15.084 57.2264 15.084ZM59.6832 15V7.454H60.9852V15H59.6832ZM59.6832 6.25V4.57H60.9852V6.25H59.6832ZM62.9774 15V7.454H64.2514V8.924L64.0414 8.798C64.2281 8.322 64.5268 7.95333 64.9374 7.692C65.3574 7.42133 65.8474 7.286 66.4074 7.286C66.9488 7.286 67.4294 7.40733 67.8494 7.65C68.2788 7.89267 68.6148 8.22867 68.8574 8.658C69.1094 9.08733 69.2354 9.57267 69.2354 10.114V15H67.9194V10.534C67.9194 10.114 67.8448 9.75933 67.6954 9.47C67.5461 9.18067 67.3314 8.95667 67.0514 8.798C66.7808 8.63 66.4681 8.546 66.1134 8.546C65.7588 8.546 65.4414 8.63 65.1614 8.798C64.8908 8.95667 64.6761 9.18533 64.5174 9.484C64.3588 9.77333 64.2794 10.1233 64.2794 10.534V15H62.9774ZM73.7445 15.168C73.2032 15.168 72.7132 15.042 72.2745 14.79C71.8452 14.538 71.5092 14.188 71.2665 13.74C71.0332 13.2827 70.9165 12.76 70.9165 12.172V7.454H72.2185V12.032C72.2185 12.4053 72.2932 12.732 72.4425 13.012C72.6012 13.292 72.8158 13.5113 73.0865 13.67C73.3665 13.8287 73.6838 13.908 74.0385 13.908C74.3932 13.908 74.7058 13.8287 74.9765 13.67C75.2565 13.5113 75.4712 13.2827 75.6205 12.984C75.7792 12.6853 75.8585 12.3307 75.8585 11.92V7.454H77.1745V15H75.9005V13.53L76.1105 13.656C75.9332 14.132 75.6298 14.5053 75.2005 14.776C74.7805 15.0373 74.2952 15.168 73.7445 15.168ZM82.6356 15.168C81.9076 15.168 81.2589 14.9953 80.6896 14.65C80.1203 14.3047 79.6723 13.8333 79.3456 13.236C79.0189 12.6293 78.8556 11.9527 78.8556 11.206C78.8556 10.45 79.0143 9.778 79.3316 9.19C79.6583 8.602 80.0969 8.14 80.6476 7.804C81.2076 7.45867 81.8329 7.286 82.5236 7.286C83.0836 7.286 83.5783 7.38867 84.0076 7.594C84.4463 7.79 84.8149 8.06067 85.1136 8.406C85.4216 8.742 85.6549 9.12933 85.8136 9.568C85.9816 9.99733 86.0656 10.4453 86.0656 10.912C86.0656 11.0147 86.0563 11.1313 86.0376 11.262C86.0283 11.3833 86.0143 11.5 85.9956 11.612H79.8076V10.492H85.2396L84.6236 10.996C84.7076 10.5107 84.6609 10.0767 84.4836 9.694C84.3063 9.31133 84.0449 9.008 83.6996 8.784C83.3543 8.56 82.9623 8.448 82.5236 8.448C82.0849 8.448 81.6836 8.56 81.3196 8.784C80.9556 9.008 80.6709 9.33 80.4656 9.75C80.2696 10.1607 80.1903 10.6507 80.2276 11.22C80.1903 11.7707 80.2743 12.256 80.4796 12.676C80.6943 13.0867 80.9929 13.4087 81.3756 13.642C81.7676 13.866 82.1923 13.978 82.6496 13.978C83.1536 13.978 83.5783 13.8613 83.9236 13.628C84.2689 13.3947 84.5489 13.096 84.7636 12.732L85.8556 13.292C85.7063 13.6373 85.4729 13.9547 85.1556 14.244C84.8476 14.524 84.4789 14.748 84.0496 14.916C83.6296 15.084 83.1583 15.168 82.6356 15.168ZM91.8631 15L89.2731 7.454H90.7151L92.7731 13.768L92.2691 13.754L94.2851 7.454H95.5171L97.5331 13.754L97.0291 13.768L99.1011 7.454H100.529L97.9391 15H96.6931L94.7051 8.7H95.0971L93.1091 15H91.8631ZM101.666 15V7.454H102.968V15H101.666ZM101.666 6.25V4.57H102.968V6.25H101.666ZM108.026 15.084C107.288 15.084 106.719 14.874 106.318 14.454C105.926 14.034 105.73 13.4413 105.73 12.676V8.7H104.358V7.454H104.638C104.974 7.454 105.24 7.35133 105.436 7.146C105.632 6.94067 105.73 6.67 105.73 6.334V5.718H107.032V7.454H108.726V8.7H107.032V12.634C107.032 12.886 107.069 13.1053 107.144 13.292C107.228 13.4787 107.363 13.628 107.55 13.74C107.736 13.8427 107.984 13.894 108.292 13.894C108.357 13.894 108.436 13.8893 108.53 13.88C108.632 13.8707 108.726 13.8613 108.81 13.852V15C108.688 15.028 108.553 15.0467 108.404 15.056C108.254 15.0747 108.128 15.084 108.026 15.084ZM110.483 15V4.402H111.785V8.924L111.547 8.798C111.733 8.322 112.032 7.95333 112.443 7.692C112.863 7.42133 113.353 7.286 113.913 7.286C114.454 7.286 114.935 7.40733 115.355 7.65C115.784 7.89267 116.12 8.22867 116.363 8.658C116.615 9.08733 116.741 9.57267 116.741 10.114V15H115.425V10.534C115.425 10.114 115.345 9.75933 115.187 9.47C115.037 9.18067 114.827 8.95667 114.557 8.798C114.286 8.63 113.973 8.546 113.619 8.546C113.273 8.546 112.961 8.63 112.681 8.798C112.401 8.95667 112.181 9.18533 112.023 9.484C111.864 9.77333 111.785 10.1233 111.785 10.534V15H110.483ZM121.122 15V4.57H127.912V5.83H122.494V9.134H127.632V10.394H122.494V13.74H127.912V15H121.122ZM129.43 15V7.454H130.704V8.994L130.522 8.756C130.709 8.28 131.007 7.916 131.418 7.664C131.829 7.412 132.291 7.286 132.804 7.286C133.392 7.286 133.919 7.44933 134.386 7.776C134.862 8.10267 135.189 8.532 135.366 9.064L135.002 9.078C135.198 8.49 135.529 8.04667 135.996 7.748C136.463 7.44 136.981 7.286 137.55 7.286C138.073 7.286 138.544 7.40733 138.964 7.65C139.393 7.89267 139.734 8.22867 139.986 8.658C140.238 9.08733 140.364 9.57267 140.364 10.114V15H139.048V10.534C139.048 10.114 138.973 9.75933 138.824 9.47C138.675 9.18067 138.469 8.95667 138.208 8.798C137.956 8.63 137.657 8.546 137.312 8.546C136.976 8.546 136.673 8.63 136.402 8.798C136.141 8.95667 135.931 9.18533 135.772 9.484C135.623 9.77333 135.548 10.1233 135.548 10.534V15H134.232V10.534C134.232 10.114 134.157 9.75933 134.008 9.47C133.859 9.18067 133.653 8.95667 133.392 8.798C133.14 8.63 132.841 8.546 132.496 8.546C132.16 8.546 131.857 8.63 131.586 8.798C131.325 8.95667 131.115 9.18533 130.956 9.484C130.807 9.77333 130.732 10.1233 130.732 10.534V15H129.43ZM144.397 15.168C143.902 15.168 143.464 15.0793 143.081 14.902C142.708 14.7153 142.414 14.4633 142.199 14.146C141.984 13.8193 141.877 13.446 141.877 13.026C141.877 12.6247 141.961 12.2653 142.129 11.948C142.306 11.6213 142.577 11.346 142.941 11.122C143.314 10.898 143.781 10.7393 144.341 10.646L147.141 10.184V11.276L144.635 11.696C144.15 11.78 143.795 11.934 143.571 12.158C143.356 12.382 143.249 12.6573 143.249 12.984C143.249 13.292 143.37 13.5487 143.613 13.754C143.865 13.9593 144.178 14.062 144.551 14.062C145.027 14.062 145.438 13.964 145.783 13.768C146.138 13.5627 146.413 13.2873 146.609 12.942C146.814 12.5967 146.917 12.214 146.917 11.794V9.876C146.917 9.46533 146.763 9.134 146.455 8.882C146.156 8.62067 145.76 8.49 145.265 8.49C144.836 8.49 144.453 8.602 144.117 8.826C143.79 9.04067 143.548 9.33 143.389 9.694L142.255 9.106C142.395 8.76067 142.619 8.45267 142.927 8.182C143.235 7.902 143.594 7.68267 144.005 7.524C144.416 7.36533 144.845 7.286 145.293 7.286C145.872 7.286 146.38 7.398 146.819 7.622C147.258 7.83667 147.598 8.14 147.841 8.532C148.093 8.91467 148.219 9.36267 148.219 9.876V15H146.945V13.572L147.183 13.656C147.024 13.9547 146.81 14.216 146.539 14.44C146.268 14.664 145.951 14.8413 145.587 14.972C145.223 15.1027 144.826 15.168 144.397 15.168ZM150.21 15V7.454H151.512V15H150.21ZM150.21 6.25V4.57H151.512V6.25H150.21ZM153.504 15V4.402H154.806V15H153.504Z" fill="#9371B6"/>
<g clip-path="url(#clip0_236_3450)">
<path d="M2.5 5.83333C2.5 5.39131 2.67559 4.96738 2.98816 4.65482C3.30072 4.34226 3.72464 4.16667 4.16667 4.16667H15.8333C16.2754 4.16667 16.6993 4.34226 17.0118 4.65482C17.3244 4.96738 17.5 5.39131 17.5 5.83333V14.1667C17.5 14.6087 17.3244 15.0326 17.0118 15.3452C16.6993 15.6577 16.2754 15.8333 15.8333 15.8333H4.16667C3.72464 15.8333 3.30072 15.6577 2.98816 15.3452C2.67559 15.0326 2.5 14.6087 2.5 14.1667V5.83333Z" stroke="#9371B6" stroke-width="2" stroke-linecap="round" stroke-linejoin="round"/>
<path d="M2.5 5.83333L10 10.8333L17.5 5.83333" stroke="#9371B6" stroke-width="2" stroke-linecap="round" stroke-linejoin="round"/>
</g>
<defs>
<clipPath id="clip0_236_3450">
<rect width="20" height="20" fill="white"/>
</clipPath>
</defs>
</svg>
